<svg width="25" height="24" viewBox="0 0 25 24" fill="none" xmlns="http://www.w3.org/2000/svg">
    <path
        d="M6.5 14H18.5C20.1569 14 21.5 15.3431 21.5 17C21.5 18.6569 20.1569 20 18.5 20H6.5C4.84315 20 3.5 18.6569 3.5 17C3.5 15.3431 4.84315 14 6.5 14Z"
        stroke="white" stroke-width="2" />
    <path
        d="M3.5 17C3.5 15.5899 4.99122 9.70622 5.87093 6.3579C6.09029 5.523 6.19997 5.10554 6.442 4.7879C6.65403 4.5096 6.94174 4.28772 7.26478 4.15336C7.6335 4 8.07038 4 8.94415 4H16.0559C16.9296 4 17.3665 4 17.7352 4.15336C18.0583 4.28772 18.346 4.5096 18.558 4.7879C18.8 5.10554 18.9097 5.523 19.1291 6.3579C20.0088 9.70622 21.5 15.5899 21.5 17"
        stroke="white" stroke-width="2" />
    <rect x="17.5" y="16" width="2" height="2" rx="1" fill="white" />
    <rect x="5.5" y="16" width="4" height="2" rx="1" fill="white" />
</svg>
    