<svg width="39" height="15" viewBox="0 0 39 15" fill="none" xmlns="http://www.w3.org/2000/svg">
    <path
        d="M0 0H3.79261L7.7983 9.77273H7.96875L11.9744 0H15.767V14.5455H12.7841V5.07812H12.6634L8.89915 14.4744H6.8679L3.10369 5.04261H2.98295V14.5455H0V0Z"
        fill="white" />
    <path
        d="M18.1562 14.5455H13V0H18.1989C19.6619 0 20.9214 0.291193 21.9773 0.87358C23.0331 1.45123 23.8452 2.2822 24.4134 3.36648C24.9863 4.45076 25.2727 5.74811 25.2727 7.25852C25.2727 8.77367 24.9863 10.0758 24.4134 11.1648C23.8452 12.2538 23.0284 13.0895 21.9631 13.6719C20.9025 14.2543 19.6335 14.5455 18.1562 14.5455ZM16.0753 11.9105H18.0284C18.9375 11.9105 19.7022 11.7495 20.3224 11.4276C20.9474 11.1009 21.4162 10.5966 21.7287 9.91477C22.0459 9.22822 22.2045 8.3428 22.2045 7.25852C22.2045 6.18371 22.0459 5.3054 21.7287 4.62358C21.4162 3.94176 20.9498 3.43987 20.3295 3.1179C19.7093 2.79593 18.9446 2.63494 18.0355 2.63494H16.0753V11.9105Z"
        fill="white" />
    <path
        d="M23 0H26.7926L30.7983 9.77273H30.9688L34.9744 0H38.767V14.5455H35.7841V5.07812H35.6634L31.8991 14.4744H29.8679L26.1037 5.04261H25.983V14.5455H23V0Z"
        fill="white" />
</svg>