<svg width="25" height="24" viewBox="0 0 25 24" fill="none" xmlns="http://www.w3.org/2000/svg">
    <g clip-path="url(#clip0_1501_4725)">
        <path
            d="M17 12C18.38 12 19.49 10.88 19.49 9.5C19.49 8.12 18.38 7 17 7C15.62 7 14.5 8.12 14.5 9.5C14.5 10.88 15.62 12 17 12ZM9.5 11C11.16 11 12.49 9.66 12.49 8C12.49 6.34 11.16 5 9.5 5C7.84 5 6.5 6.34 6.5 8C6.5 9.66 7.84 11 9.5 11ZM17 14C15.17 14 11.5 14.92 11.5 16.75V19H22.5V16.75C22.5 14.92 18.83 14 17 14ZM9.5 13C7.17 13 2.5 14.17 2.5 16.5V19H9.5V16.75C9.5 15.9 9.83 14.41 11.87 13.28C11 13.1 10.16 13 9.5 13Z"
            fill="white" />
    </g>
    <defs>
        <clipPath id="clip0_1501_4725">
            <rect width="24" height="24" fill="white" transform="translate(0.5)" />
        </clipPath>
    </defs>
</svg>
    